<?xml version="1.0" encoding="utf-8"?>
<!-- Generator: Adobe Illustrator 27.5.0, SVG Export Plug-In . SVG Version: 6.00 Build 0)  -->
<svg version="1.1" xmlns="http://www.w3.org/2000/svg" xmlns:xlink="http://www.w3.org/1999/xlink" x="0px" y="0px"
	 viewBox="0 0 500 500" style="enable-background:new 0 0 500 500;" xml:space="preserve">
<g id="Floor">
	<ellipse style="fill:#F5F5F5;" cx="250" cy="363.633" rx="208.746" ry="120.52"/>
</g>
<g id="Shadows">
	<ellipse style="fill:#E0E0E0;" cx="170.755" cy="389.116" rx="51.387" ry="29.668"/>
	<path style="fill:#E0E0E0;" d="M217.448,330.111l135.637,78.324c3.816,2.203,10.482,1.927,14.888-0.617l48.155-27.803
		c4.406-2.544,4.885-6.392,1.069-8.595L281.56,293.096c-3.816-2.203-10.481-1.927-14.888,0.617l-48.155,27.803
		C214.111,324.06,213.632,327.908,217.448,330.111z"/>
</g>
<g id="Clouds">
	<g>
		<path style="fill:#E6E6E6;" d="M117.417,81.014l-6.75,3.84v-2.389c0.011-0.17,0.022-0.34,0.022-0.508
			c0-0.167-0.011-0.325-0.022-0.482v-0.056l-0.003,0.001c-0.243-3.166-2.64-4.38-5.566-2.69c-1.246,0.72-2.394,1.859-3.324,3.192
			c-0.66-4.3-4.168-5.852-8.408-3.404c-4.711,2.72-8.53,9.334-8.53,14.774l-0.004,5.118c-0.001,0.824-0.438,1.587-1.148,2.004
			l-3.971,2.329c-1.752,1.028-2.828,2.907-2.828,4.938c0,1.815,1.965,2.949,3.537,2.041l36.893-21.312
			c1.994-1.152,3.222-3.28,3.222-5.582C120.537,81.227,118.809,80.222,117.417,81.014z"/>
		<path style="fill:#E6E6E6;" d="M156.917,38.921l-4.993,2.841v-1.767c0.008-0.126,0.016-0.252,0.016-0.375
			c0-0.124-0.008-0.24-0.016-0.357v-0.042l-0.002,0.001c-0.18-2.342-1.953-3.24-4.118-1.99c-0.922,0.532-1.771,1.375-2.459,2.361
			c-0.488-3.181-3.083-4.329-6.22-2.518c-3.485,2.012-6.31,6.905-6.31,10.929l-0.003,3.786c-0.001,0.61-0.324,1.174-0.85,1.482
			l-2.937,1.723c-1.296,0.76-2.092,2.15-2.092,3.653c0,1.343,1.454,2.182,2.617,1.51l27.292-15.766
			c1.475-0.852,2.383-2.426,2.383-4.129C159.225,39.079,157.947,38.335,156.917,38.921z"/>
	</g>
</g>
<g id="Plant">
	<g>
		<g>
			<path style="fill:#BA68C8;" d="M104.085,341.712l-10.43,6.058c0,0,5.263-16.799,2.342-33.699
				c-1.103-6.379-3.423-9.548-4.242-11.25c-0.819-1.703-7.107-12.243-1.571-17.103c5.536-4.859,18.524,4.806,17.942,30.835
				C107.826,329.911,104.085,341.712,104.085,341.712z"/>
			<path style="opacity:0.5;" d="M104.085,341.712l-10.43,6.058c0,0,5.263-16.799,2.342-33.699
				c-1.103-6.379-3.423-9.548-4.242-11.25c-0.819-1.703-7.107-12.243-1.571-17.103c5.536-4.859,18.524,4.806,17.942,30.835
				C107.826,329.911,104.085,341.712,104.085,341.712z"/>
			<path style="fill:#FFFFFF;" d="M99.236,344.901c-0.043,0-0.086-0.007-0.128-0.023c-0.193-0.071-0.293-0.285-0.222-0.478
				c0.039-0.107,3.929-10.925,3.724-28.323c-0.204-17.309-9.247-26.504-9.338-26.596c-0.146-0.145-0.146-0.381-0.002-0.527
				c0.145-0.146,0.381-0.147,0.527-0.002c0.094,0.093,9.35,9.486,9.559,27.116c0.206,17.546-3.73,28.48-3.771,28.588
				C99.531,344.808,99.389,344.901,99.236,344.901z"/>
		</g>
		<g>
			<path style="fill:#BA68C8;" d="M95.996,346.445l-17.23,10.133c0,0-7.889-1.162-7.292-8.589c0.597-7.426,3.802-9.176-0.189-12.439
				s-5.021-3.479-4.83-6.677c0.191-3.198,2.343-4.593,3.355-5.861c1.012-1.267,3.834-3.926,1.848-7.784
				c-1.986-3.857-4.676-7.583-0.681-9.351c2.385-1.055,6.395,0.267,9.054,3.089c2.658,2.822,4.851,4.851,7.37,5.506
				c2.519,0.655,7.77,0.707,7.593,5.047c-0.177,4.339-1.304,5.838-0.251,7.765C96.726,330.913,105.195,332.868,95.996,346.445z"/>
			<path style="opacity:0.2;" d="M95.996,346.445l-17.23,10.133c0,0-7.889-1.162-7.292-8.589c0.597-7.426,3.802-9.176-0.189-12.439
				s-5.021-3.479-4.83-6.677c0.191-3.198,2.343-4.593,3.355-5.861c1.012-1.267,3.834-3.926,1.848-7.784
				c-1.986-3.857-4.676-7.583-0.681-9.351c2.385-1.055,6.395,0.267,9.054,3.089c2.658,2.822,4.851,4.851,7.37,5.506
				c2.519,0.655,7.77,0.707,7.593,5.047c-0.177,4.339-1.304,5.838-0.251,7.765C96.726,330.913,105.195,332.868,95.996,346.445z"/>
			<path style="fill:#FFFFFF;" d="M88.979,350.944c-0.01,0-0.02,0-0.03-0.001c-0.205-0.017-0.358-0.197-0.341-0.402
				c0.021-0.253,1.857-25.548-15.692-42.136c-0.149-0.142-0.156-0.378-0.015-0.527c0.142-0.15,0.376-0.156,0.526-0.015
				c17.816,16.838,15.944,42.481,15.923,42.738C89.335,350.797,89.172,350.944,88.979,350.944z"/>
			<path style="fill:#FFFFFF;" d="M85.89,328.928c-0.009,0-0.019,0-0.027-0.001c-0.205-0.015-0.359-0.194-0.345-0.399
				c0.53-7.149,5.381-10.717,5.587-10.866c0.165-0.12,0.399-0.083,0.52,0.085c0.121,0.167,0.083,0.399-0.084,0.52
				c-0.048,0.035-4.775,3.525-5.278,10.315C86.247,328.779,86.083,328.928,85.89,328.928z"/>
			<path style="fill:#FFFFFF;" d="M87.162,333.312c-0.102,0-0.203-0.042-0.277-0.123c-0.043-0.047-4.408-4.728-14.323-3.366
				c-0.212,0.026-0.393-0.115-0.42-0.318c-0.028-0.204,0.114-0.392,0.318-0.42c10.327-1.424,14.794,3.399,14.979,3.605
				c0.138,0.153,0.125,0.388-0.028,0.525C87.34,333.28,87.251,333.312,87.162,333.312z"/>
		</g>
	</g>
</g>
<g id="Device">
	<g>
		<g>
			<polygon style="fill:#37484F;" points="262.06,37.416 262.06,37.416 262.06,37.414 			"/>
			<path style="fill:#37484F;" d="M399.018,116.145c0-6.657-3.551-12.809-9.317-16.137l-118.489-68.41
				c-3.5-2.021-7.745-0.124-8.864,3.436c0.642-2.772,2.372-5.212,4.875-6.703l0.422-0.251c2.948-1.756,6.316-2.683,9.748-2.683
				v0.002c1.042-0.014,2.115,0.242,3.124,0.825l118.489,68.41c5.765,3.328,9.317,9.48,9.317,16.137v256.244
				c0,4.697-5.085,7.632-9.152,5.284l-0.154-0.089V116.145z"/>
		</g>
		<path style="fill:#455A64;" d="M271.377,309.263l118.489,68.41c4.068,2.348,9.152-0.587,9.152-5.284V116.145
			c0-6.657-3.551-12.809-9.317-16.137l-118.489-68.41c-4.068-2.349-9.152,0.587-9.152,5.284v256.244
			C262.06,299.782,265.612,305.934,271.377,309.263z"/>
		<path style="fill:#253239;" d="M399.018,372.388V116.145c0-2.841-0.652-5.588-1.842-8.065l9.161-5.674
			c1.283,2.553,1.986,5.408,1.986,8.364v255.71v0.534v2.14c0,2.069-1.089,3.985-2.866,5.043l-4.724,2.813
			c-1.637,0.975-3.506,1.49-5.411,1.49h-2.333v-0.002C396.145,378.453,399.018,375.919,399.018,372.388z"/>
		<g>
			<path style="fill:#37484F;" d="M275.455,56.228v215.375c0,5.879,3.136,11.311,8.227,14.25l104.633,60.41
				c0.839,0.484,1.727,0.705,2.595,0.72c-1.213,2.809-4.725,4.206-7.645,2.52l-104.632-60.41c-5.091-2.939-8.227-8.371-8.227-14.25
				V61.602C270.405,58.587,272.779,56.404,275.455,56.228z"/>
			<g>
				<path style="fill:#BA68C8;" d="M390.909,346.983c-0.868-0.015-1.756-0.236-2.595-0.72l-104.633-60.41
					c-5.091-2.939-8.227-8.372-8.227-14.25V56.228c-0.492,0.032,1.57-0.136,3.032,0.708l104.632,60.41
					c5.091,2.939,8.228,8.371,8.228,14.25v213.241c0,0.788-0.164,1.52-0.452,2.174C390.9,347.002,390.905,346.993,390.909,346.983z"
					/>
			</g>
			<g style="opacity:0.5;">
				<path style="fill:#FFFFFF;" d="M390.909,346.983c-0.868-0.015-1.756-0.236-2.595-0.72l-104.633-60.41
					c-5.091-2.939-8.227-8.372-8.227-14.25V56.228c-0.492,0.032,1.57-0.136,3.032,0.708l104.632,60.41
					c5.091,2.939,8.228,8.371,8.228,14.25v213.241c0,0.788-0.164,1.52-0.452,2.174C390.9,347.002,390.905,346.993,390.909,346.983z"
					/>
			</g>
		</g>
		<g>
			<path style="fill:#253239;" d="M347.122,85.779c0,1.202,0.844,2.663,1.884,3.264c1.04,0.601,1.884,0.114,1.884-1.088
				c0-1.201-0.844-2.662-1.884-3.263C347.965,84.09,347.122,84.577,347.122,85.779z"/>
			<path style="fill:#253239;" d="M340.112,81.732c0,1.202,0.844,2.663,1.884,3.263c1.041,0.601,1.884,0.114,1.884-1.088
				c0-1.202-0.844-2.663-1.884-3.264C340.956,80.044,340.112,80.531,340.112,81.732z"/>
			<path style="fill:#253239;" d="M311.82,67.573l22.79,13.158c0.901,0.52,1.632-0.032,1.632-1.234l0,0
				c0-1.201-0.73-2.597-1.632-3.118l-22.79-13.158c-0.901-0.52-1.632,0.032-1.632,1.233l0,0
				C310.189,65.657,310.919,67.053,311.82,67.573z"/>
		</g>
		<path style="fill:#253239;" d="M315.676,317.346c0.495,0,1.041,0.171,1.624,0.507l10.9,6.293c2.599,1.501,4.796,5.735,4.796,9.246
			c0,2.234-0.88,3.678-2.241,3.678c-0.495,0-1.041-0.171-1.623-0.507l-10.9-6.293c-2.599-1.501-4.796-5.735-4.796-9.246
			C313.435,318.79,314.315,317.346,315.676,317.346L315.676,317.346 M315.676,316.415c-1.867,0-3.172,1.724-3.172,4.609
			c0,3.874,2.355,8.375,5.261,10.052l10.9,6.293c0.742,0.428,1.449,0.631,2.089,0.631c1.867,0,3.172-1.724,3.172-4.609
			c0-3.874-2.355-8.375-5.261-10.052l-10.9-6.293C317.023,316.618,316.316,316.415,315.676,316.415L315.676,316.415z"/>
	</g>
</g>
<g id="Screen">
	<g>
		<g>
			<g>
				<g>
					<g>
						<path style="fill:#E6E6E6;" d="M375.911,146.691v241.413c0,4.373-1.607,7.311-4.063,8.275l-0.069,0.023l-0.012,0.011
							l-10.432,5.716l0.057-9.285l1.159-250.331l11.018-5.635C375.028,140,375.911,143.466,375.911,146.691z"/>
						<path style="fill:#E6E6E6;" d="M360.831,402.976l0.062-10.135l1.16-250.634l11.751-6.01l0.22,0.47
							c1.54,3.299,2.388,6.859,2.388,10.024v241.413c0,4.396-1.638,7.664-4.38,8.74l-0.027,0.01L360.831,402.976z M363.051,142.82
							l-1.158,250.026l-0.052,8.436l9.781-5.355c2.389-0.934,3.789-3.853,3.789-7.823V146.691c0-2.873-0.736-6.096-2.079-9.129
							L363.051,142.82z"/>
					</g>
					<g>
						<path style="fill:#E0E0E0;" d="M373.57,136.878l-11.018,5.635L244.637,73.915l-7.873-4.579l10.88-6.129l0.31-0.184v-0.011
							c1.733-1.044,4.006-0.976,6.507,0.471l111.614,64.443C369.083,129.659,371.768,132.999,373.57,136.878z"/>
						<path style="fill:#E0E0E0;" d="M362.552,143.013c-0.087,0-0.174-0.022-0.251-0.068L236.513,69.768
							c-0.155-0.09-0.25-0.256-0.249-0.436c0.001-0.179,0.099-0.344,0.255-0.432l11.102-6.261c0.023-0.021,0.048-0.04,0.075-0.056
							c1.959-1.181,4.453-1.016,7.016,0.466l111.613,64.443c2.982,1.718,5.789,5.063,7.698,9.175
							c0.113,0.244,0.014,0.533-0.225,0.656l-11.019,5.635C362.708,142.995,362.63,143.013,362.552,143.013z M237.77,69.343
							l124.797,72.601l10.343-5.29c-1.816-3.729-4.38-6.737-7.085-8.295L254.212,63.916c-2.202-1.272-4.304-1.454-5.926-0.519
							c-0.023,0.021-0.05,0.041-0.077,0.057l-0.31,0.184L237.77,69.343z"/>
					</g>
					<path style="fill:#FAFAFA;" d="M365.1,152.762v240.322c0,3.787-1.205,6.507-3.133,7.781l-0.631,0.344
						c-1.676,0.792-3.776,0.62-6.06-0.7l-53.953-31.149l-57.66-34.705c-5.429-3.133-9.836-10.135-9.836-17.366V76.979
						c0-3.661,1.125-6.312,2.938-7.644c0.31-0.23,0.643-0.425,0.999-0.562c1.641-0.7,3.684-0.493,5.899,0.78l111.614,65.53
						c2.892,1.664,5.486,3.746,7.276,7.43C364.136,145.738,365.1,149.376,365.1,152.762z"/>
				</g>
				<g>
					<path style="fill:#FAFAFA;" d="M243.661,334.656c22.967,13.701,82.715,49.36,112.292,67.174
						c3.873,2.333,8.802-0.46,8.802-4.981V149.732c0-5.721-3.033-11.014-7.968-13.906L243.125,69.213
						c-3.873-2.27-8.748,0.523-8.748,5.013v244.076C234.376,325.009,237.901,331.22,243.661,334.656z"/>
					<path style="fill:#EBEBEB;" d="M243.409,335.088c18.442,11.001,36.88,22.01,55.313,33.028
						c10.77,6.438,21.537,12.879,32.3,19.328c4.812,2.883,9.623,5.768,14.432,8.656c2.142,1.286,4.283,2.573,6.423,3.86
						c1.922,1.156,3.989,2.864,6.267,3.155c3.83,0.489,7.008-2.553,7.111-6.304c0.012-0.431,0-0.865,0-1.296
						c0-2.563,0-5.125,0-7.688c0-10.725,0-21.451,0-32.176c0-15.582,0-31.163,0-46.745c0-17.617,0-35.235,0-52.852
						c0-16.662,0-33.324,0-49.986c0-12.728,0-25.456,0-38.184c0-5.933,0.022-11.866,0-17.799
						c-0.023-6.214-3.137-11.683-8.489-14.851c-2.595-1.536-5.203-3.049-7.805-4.574c-12.407-7.271-24.814-14.542-37.22-21.813
						c-14.724-8.63-29.449-17.259-44.174-25.889c-7.971-4.672-15.9-9.427-23.918-14.018c-4.547-2.603-9.73,0.459-9.773,5.657
						c-0.016,1.954,0,3.91,0,5.864c0,9.873,0,19.747,0,29.62c0,15.163,0,30.325,0,45.488c0,17.549,0,35.099,0,52.648
						c0,16.871,0,33.742,0,50.613c0,13.136,0,26.272,0,39.408c0,6.466-0.008,12.933,0,19.399
						C233.886,324.812,237.234,331.293,243.409,335.088c0.55,0.338,1.053-0.527,0.505-0.863c-6.079-3.735-9.037-10.034-9.037-17.01
						c0-2.413,0-4.826,0-7.239c0-10.334,0-20.668,0-31.002c0-15.274,0-30.547,0-45.821c0-17.328,0-34.656,0-51.984
						c0-16.497,0-32.995,0-49.492c0-12.813,0-25.625,0-38.437c0-6.154-0.033-12.308,0-18.462c0.009-1.722,0.444-3.372,1.817-4.556
						c2.084-1.796,4.65-1.473,6.835-0.192c2.932,1.718,5.865,3.437,8.797,5.155c12.559,7.361,25.119,14.721,37.678,22.082
						c14.391,8.434,28.783,16.868,43.174,25.303c7.71,4.518,15.442,9.001,23.13,13.556c5.159,3.056,7.938,8.288,7.948,14.226
						c0.004,2.101,0,4.201,0,6.302c0,9.804,0,19.608,0,29.412c0,14.931,0,29.862,0,44.792c0,17.245,0,34.49,0,51.735
						c0,16.747,0,33.493,0,50.24c0,13.436,0,26.871,0,40.307c0,7.322,0,14.645,0,21.967c0,0.53,0.016,1.063,0,1.593
						c-0.13,4.422-4.571,6.748-8.333,4.529c-9.071-5.35-18.057-10.85-27.091-16.262c-20.897-12.518-41.81-25.012-62.726-37.498
						c-7.396-4.415-14.794-8.83-22.192-13.243C243.36,333.894,242.856,334.758,243.409,335.088z"/>
				</g>
				<path style="fill:#BA68C8;" d="M348.368,247.749c2.808,1.621,4.538,4.618,4.538,7.86l0,0c0,3.138-3.397,5.1-6.115,3.53
					l-96.028-55.441c-2.808-1.621-4.538-4.617-4.538-7.86l0,0c0-3.139,3.397-5.1,6.115-3.531L348.368,247.749z"/>
				<path style="fill:#BA68C8;" d="M347.54,236.085l-97.026-56.018c-2.654-1.532-4.288-4.363-4.288-7.428v-60.808
					c0-2.754,2.982-4.476,5.367-3.099l97.026,56.018c2.654,1.532,4.288,4.363,4.288,7.428v60.808
					C352.906,235.741,349.925,237.462,347.54,236.085z"/>
				<path style="opacity:0.3;fill:#FFFFFF;" d="M347.54,236.085l-97.026-56.018c-2.654-1.532-4.288-4.363-4.288-7.428v-60.808
					c0-2.754,2.982-4.476,5.367-3.099l97.026,56.018c2.654,1.532,4.288,4.363,4.288,7.428v60.808
					C352.906,235.741,349.925,237.462,347.54,236.085z"/>
				<path style="fill:#BA68C8;" d="M347.54,311.813l-97.026-56.018c-2.654-1.532-4.288-4.364-4.288-7.428v-28.612
					c0-2.754,2.982-4.476,5.367-3.099l97.026,56.018c2.654,1.532,4.288,4.364,4.288,7.428v28.612
					C352.906,311.469,349.925,313.19,347.54,311.813z"/>
				<path style="fill:#BA68C8;" d="M347.54,363.993l-97.026-56.018c-2.654-1.532-4.288-4.364-4.288-7.428v-28.613
					c0-2.754,2.982-4.476,5.367-3.098l97.026,56.018c2.654,1.532,4.288,4.363,4.288,7.428v28.613
					C352.906,363.649,349.925,365.371,347.54,363.993z"/>
				<path style="fill:#BA68C8;" d="M352.905,384.442v15.556c-20.531-12.351-52.914-31.72-78.648-47.069
					c-1.716-1.032-3.4-2.042-5.052-3.02c-4.041-2.422-7.876-4.704-11.417-6.822c-1.803-1.075-3.52-2.096-5.16-3.085
					c-2.314-1.369-4.454-2.65-6.398-3.813v-12.09c0-2.759,2.977-4.475,5.366-3.096l97.017,56.01
					C351.276,378.543,352.905,381.378,352.905,384.442z"/>
				<g>
					<path style="fill:#FAFAFA;" d="M274.257,352.928c-1.716-1.032-3.4-2.042-5.052-3.02c-4.041-2.422-7.876-4.704-11.417-6.822
						c-1.803-1.075-3.52-2.096-5.16-3.085c0.326-6.355,5.041-8.832,10.809-5.497C269.325,337.905,274.116,346.085,274.257,352.928z"
						/>
					<path style="fill:#37474F;" d="M269.216,349.724c0,0.065,0,0.12-0.011,0.185c-4.041-2.422-7.876-4.704-11.417-6.822
						c0.022-1.792,1.293-2.509,2.857-1.608c1.575,0.913,2.857,3.118,2.857,4.943c0-1.825,1.282-2.553,2.857-1.651
						C267.935,345.683,269.216,347.899,269.216,349.724z"/>
				</g>
				<g>
					<path style="fill:#FFFFFF;" d="M343.599,386.019c1.904,1.099,3.076,3.13,3.076,5.328l0,0c0,2.128-2.303,3.457-4.146,2.393
						l-59.165-35.217c-1.904-1.099-3.076-3.13-3.076-5.328l0,0c0-2.128,2.303-3.457,4.145-2.393L343.599,386.019z"/>
					<path style="fill:#263238;" d="M339.696,389.402c-0.236,0-0.476-0.062-0.693-0.192l-55.999-33.417
						c-0.643-0.383-0.854-1.216-0.47-1.859c0.384-0.644,1.215-0.855,1.858-0.469l55.999,33.417c0.644,0.383,0.853,1.216,0.47,1.859
						C340.607,389.166,340.157,389.402,339.696,389.402z"/>
				</g>
				<path style="fill:#EBEBEB;" d="M356.787,135.826L243.124,69.213c-3.873-2.27-8.748,0.523-8.748,5.013v10.721l0.034,0.002
					l130.345,75.255v-10.471C364.755,144.011,361.723,138.719,356.787,135.826z"/>
				<path style="fill:#263238;" d="M282.809,218.172c-0.339,0-0.683-0.087-0.998-0.269l-31.556-18.219
					c-0.957-0.552-1.284-1.775-0.732-2.732c0.553-0.957,1.772-1.287,2.732-0.732l31.556,18.219c0.957,0.552,1.284,1.775,0.733,2.732
					C284.172,217.813,283.5,218.172,282.809,218.172z"/>
				<path style="fill:#37474F;" d="M303.239,229.968c-0.339,0-0.683-0.087-0.998-0.269l-20.431-11.796
					c-0.957-0.552-1.284-1.775-0.732-2.732c0.553-0.957,1.772-1.286,2.732-0.732l20.431,11.796c0.957,0.552,1.284,1.775,0.732,2.732
					C304.603,229.609,303.931,229.968,303.239,229.968z"/>
				<path style="fill:#E0E0E0;" d="M336.684,249.277c-0.339,0-0.683-0.087-0.998-0.269l-33.444-19.309
					c-0.957-0.552-1.284-1.775-0.732-2.732c0.553-0.957,1.773-1.287,2.732-0.732l33.444,19.309c0.957,0.552,1.284,1.775,0.733,2.732
					C338.047,248.918,337.375,249.277,336.684,249.277z"/>
				<path style="fill:#FFFFFF;" d="M347.28,255.395c-0.339,0-0.683-0.086-0.998-0.269l-10.597-6.118
					c-0.957-0.552-1.284-1.775-0.732-2.732c0.553-0.957,1.772-1.287,2.732-0.732l10.597,6.118c0.957,0.552,1.284,1.775,0.732,2.732
					C348.644,255.036,347.972,255.395,347.28,255.395z"/>
				<path style="fill:#EBEBEB;" d="M243.409,335.088c18.442,11.001,36.88,22.01,55.313,33.028
					c10.77,6.438,21.537,12.879,32.3,19.328c4.812,2.883,9.623,5.768,14.432,8.656c2.142,1.286,4.283,2.573,6.423,3.86
					c1.922,1.156,3.989,2.864,6.267,3.155c3.83,0.489,7.008-2.553,7.111-6.304c0.012-0.431,0-0.865,0-1.296c0-2.563,0-5.125,0-7.688
					c0-10.725,0-21.451,0-32.176c0-15.582,0-31.163,0-46.745c0-17.617,0-35.235,0-52.852c0-16.662,0-33.324,0-49.986
					c0-12.728,0-25.456,0-38.184c0-5.933,0.022-11.866,0-17.799c-0.023-6.214-3.137-11.683-8.489-14.851
					c-2.595-1.536-5.203-3.049-7.805-4.574c-12.407-7.271-24.814-14.542-37.22-21.813c-14.724-8.63-29.449-17.259-44.174-25.889
					c-7.971-4.672-15.9-9.427-23.918-14.018c-4.547-2.603-9.73,0.459-9.773,5.657c-0.016,1.954,0,3.91,0,5.864
					c0,9.873,0,19.747,0,29.62c0,15.163,0,30.325,0,45.488c0,17.549,0,35.099,0,52.648c0,16.871,0,33.742,0,50.613
					c0,13.136,0,26.272,0,39.408c0,6.466-0.008,12.933,0,19.399C233.886,324.812,237.234,331.293,243.409,335.088
					c0.55,0.338,1.053-0.527,0.505-0.863c-6.079-3.735-9.037-10.034-9.037-17.01c0-2.413,0-4.826,0-7.239
					c0-10.334,0-20.668,0-31.002c0-15.274,0-30.547,0-45.821c0-17.328,0-34.656,0-51.984c0-16.497,0-32.995,0-49.492
					c0-12.813,0-25.625,0-38.437c0-6.154-0.033-12.308,0-18.462c0.009-1.722,0.444-3.372,1.817-4.556
					c2.084-1.796,4.65-1.473,6.835-0.192c2.932,1.718,5.865,3.437,8.797,5.155c12.559,7.361,25.119,14.721,37.678,22.082
					c14.391,8.434,28.783,16.868,43.174,25.303c7.71,4.518,15.442,9.001,23.13,13.556c5.159,3.056,7.938,8.288,7.948,14.226
					c0.004,2.101,0,4.201,0,6.302c0,9.804,0,19.608,0,29.412c0,14.931,0,29.862,0,44.792c0,17.245,0,34.49,0,51.735
					c0,16.747,0,33.493,0,50.24c0,13.436,0,26.871,0,40.307c0,7.322,0,14.645,0,21.967c0,0.53,0.016,1.063,0,1.593
					c-0.13,4.422-4.571,6.748-8.333,4.529c-9.071-5.35-18.057-10.85-27.091-16.262c-20.897-12.518-41.81-25.012-62.726-37.498
					c-7.396-4.415-14.794-8.83-22.192-13.243C243.36,333.894,242.856,334.758,243.409,335.088z"/>
			</g>
		</g>
		<g>
			<g>
				<polygon style="fill:#BA68C8;" points="278.277,186.075 270.979,181.861 270.979,158.617 278.277,162.831 				"/>
				<polygon style="fill:#BA68C8;" points="299.039,198.062 291.742,193.848 291.742,177.461 299.039,181.674 				"/>
				<polygon style="fill:#BA68C8;" points="288.737,192.114 281.439,187.9 281.439,154.432 288.737,158.645 				"/>
				<polygon style="fill:#BA68C8;" points="320.294,210.333 312.996,206.12 312.996,172.652 320.294,176.865 				"/>
				<polygon style="fill:#BA68C8;" points="331.022,216.527 323.725,212.314 323.725,172.37 331.022,176.583 				"/>
				<polygon style="fill:#BA68C8;" points="309.573,204.143 302.275,199.93 302.275,175.162 309.573,179.375 				"/>
			</g>
			<path style="fill:#BA68C8;" d="M341.996,223.208c-0.085,0-0.171-0.021-0.25-0.067l-81.991-47.338
				c-0.239-0.138-0.321-0.444-0.183-0.683c0.138-0.239,0.444-0.32,0.683-0.183l81.991,47.338c0.239,0.138,0.321,0.444,0.183,0.683
				C342.337,223.118,342.168,223.208,341.996,223.208z"/>
			<g>
				<polygon style="fill:#FAFAFA;" points="316.326,166.661 284.813,148.893 261.353,154.097 261.136,153.12 284.971,147.833 
					285.137,147.927 316.572,165.652 330.81,165.166 330.843,166.165 				"/>
				<path style="fill:#FAFAFA;" d="M331.58,167.068c0,1.303-0.915,1.831-2.043,1.18c-1.128-0.651-2.043-2.236-2.043-3.539
					c0-1.303,0.915-1.831,2.043-1.18C330.665,164.18,331.58,165.765,331.58,167.068z"/>
				<path style="fill:#FAFAFA;" d="M263.287,154.788c0,1.303-0.915,1.831-2.043,1.18c-1.128-0.652-2.043-2.236-2.043-3.539
					c0-1.303,0.915-1.831,2.043-1.179C262.372,151.901,263.287,153.485,263.287,154.788z"/>
				<path style="fill:#FAFAFA;" d="M286.935,149.542c0,1.303-0.915,1.831-2.043,1.18c-1.128-0.652-2.043-2.236-2.043-3.539
					c0-1.303,0.915-1.831,2.043-1.18C286.02,146.655,286.935,148.239,286.935,149.542z"/>
				<path style="fill:#FAFAFA;" d="M318.493,167.336c0,1.303-0.915,1.831-2.043,1.18c-1.128-0.651-2.043-2.236-2.043-3.539
					c0-1.303,0.915-1.831,2.043-1.18C317.578,164.448,318.493,166.033,318.493,167.336z"/>
			</g>
		</g>
		<path style="fill:#FAFAFA;" d="M274.271,249.844c0,6.91-4.851,9.711-10.836,6.256c-5.984-3.455-10.836-11.858-10.836-18.768
			c0-6.91,4.851-9.711,10.836-6.256C269.419,234.531,274.271,242.933,274.271,249.844z"/>
		<path style="fill:#FAFAFA;" d="M274.271,302.655c0,6.91-4.851,9.711-10.836,6.256c-5.984-3.455-10.836-11.858-10.836-18.768
			s4.851-9.711,10.836-6.256C269.419,287.342,274.271,295.745,274.271,302.655z"/>
		<path style="fill:#37474F;" d="M259.694,238.74v8.747c0,0.352,0.307,0.625,0.656,0.585l7.947-0.924
			c0.491-0.057,0.697-0.657,0.345-1.004l-7.947-7.823C260.324,237.954,259.694,238.218,259.694,238.74z"/>
		<path style="fill:#37474F;" d="M265.833,291.848c-1.72-0.318-2.662-1.848-3.101-2.844c-0.096-0.218-0.317-0.26-0.317-0.064v1.264
			v2.327v5.66c-0.303-0.336-0.637-0.624-0.992-0.829c-1.316-0.76-2.383-0.144-2.383,1.376c0,1.52,1.067,3.367,2.383,4.127
			c1.316,0.76,2.383,0.144,2.383-1.376v-6.788c0.393,0.296,0.883,0.509,1.493,0.523c2.225,0.052,2.581,2.335,2.581,2.335
			S268.592,292.358,265.833,291.848z"/>
		<g>
			<path style="fill:#FFFFFF;" d="M343.599,280.695c1.904,1.099,3.076,3.13,3.076,5.328l0,0c0,2.128-2.303,3.457-4.146,2.393
				l-59.165-34.131c-1.904-1.099-3.076-3.13-3.076-5.328l0,0c0-2.127,2.303-3.457,4.145-2.393L343.599,280.695z"/>
			<path style="fill:#263238;" d="M305.09,264.099c-0.23,0-0.464-0.059-0.677-0.182l-21.393-12.351
				c-0.648-0.374-0.871-1.204-0.496-1.852c0.374-0.649,1.205-0.871,1.852-0.497l21.393,12.351c0.648,0.375,0.871,1.204,0.496,1.852
				C306.014,263.855,305.559,264.099,305.09,264.099z"/>
			<path style="fill:#263238;" d="M318.94,272.095c-0.23,0-0.464-0.059-0.677-0.182l-13.85-7.997
				c-0.648-0.374-0.871-1.204-0.496-1.852c0.374-0.65,1.204-0.87,1.852-0.497l13.85,7.997c0.648,0.375,0.871,1.204,0.496,1.852
				C319.863,271.852,319.408,272.095,318.94,272.095z"/>
			<path style="fill:#FFFFFF;" d="M343.599,292.173c1.904,1.099,3.076,3.13,3.076,5.328l0,0c0,2.128-2.303,3.457-4.146,2.393
				l-59.165-34.131c-1.904-1.099-3.076-3.13-3.076-5.328v0c0-2.128,2.303-3.457,4.145-2.393L343.599,292.173z"/>
			<path style="fill:#E0E0E0;" d="M305.09,275.576c-0.23,0-0.464-0.059-0.677-0.182l-21.393-12.351
				c-0.648-0.375-0.871-1.204-0.496-1.852c0.374-0.649,1.205-0.871,1.852-0.497l21.393,12.351c0.648,0.375,0.871,1.204,0.496,1.852
				C306.014,275.333,305.559,275.576,305.09,275.576z"/>
			<path style="fill:#E0E0E0;" d="M327.759,288.668c-0.23,0-0.464-0.059-0.677-0.182l-22.669-13.092
				c-0.648-0.375-0.871-1.204-0.496-1.853c0.375-0.648,1.208-0.869,1.852-0.496l22.669,13.092c0.648,0.375,0.871,1.204,0.496,1.853
				C328.683,288.425,328.227,288.668,327.759,288.668z"/>
		</g>
		<g>
			<path style="fill:#FFFFFF;" d="M343.599,333.194c1.904,1.099,3.076,3.13,3.076,5.328l0,0c0,2.128-2.303,3.457-4.146,2.394
				l-59.165-34.131c-1.904-1.099-3.076-3.13-3.076-5.328v0c0-2.128,2.303-3.457,4.145-2.393L343.599,333.194z"/>
			<path style="fill:#263238;" d="M339.696,336.577c-0.23,0-0.464-0.059-0.677-0.182l-55.999-32.331
				c-0.648-0.375-0.871-1.204-0.496-1.852c0.374-0.649,1.205-0.871,1.852-0.497l55.999,32.331c0.648,0.374,0.871,1.204,0.496,1.852
				C340.62,336.334,340.165,336.577,339.696,336.577z"/>
			<path style="fill:#FFFFFF;" d="M343.599,344.671c1.904,1.099,3.076,3.13,3.076,5.328l0,0c0,2.128-2.303,3.457-4.146,2.393
				l-59.165-34.131c-1.904-1.099-3.076-3.13-3.076-5.328l0,0c0-2.128,2.303-3.457,4.145-2.393L343.599,344.671z"/>
			<path style="fill:#E0E0E0;" d="M305.09,328.075c-0.23,0-0.464-0.059-0.677-0.182l-21.393-12.351
				c-0.648-0.374-0.871-1.204-0.496-1.852c0.374-0.649,1.205-0.87,1.852-0.497l21.393,12.351c0.648,0.375,0.871,1.204,0.496,1.852
				C306.014,327.832,305.559,328.075,305.09,328.075z"/>
		</g>
	</g>
</g>
<g id="Character">
	<g>
		<path style="fill:#945959;" d="M185.146,156.613l-1.814-3.918c3.11-0.065,9.513,3.864,11.978,5.761l17.538,15.676l5.22,17.96
			c0,0-11.837,1.599-30.401-17.613L185.146,156.613z"/>
		<path style="fill:#BA68C8;" d="M208.726,166.531c0,0-9.132,3.588-11.36,16.707l-13.347-9.352l-0.687-21.191
			C183.332,152.695,189.176,150.799,208.726,166.531z"/>
		<path style="opacity:0.3;fill:#FFFFFF;" d="M208.726,166.531c0,0-9.132,3.588-11.36,16.707l-13.347-9.352l-0.687-21.191
			C183.332,152.695,189.176,150.799,208.726,166.531z"/>
		<g>
			
				<rect x="175.427" y="341.64" transform="matrix(-0.9997 0.0255 -0.0255 -0.9997 374.236 707.6101)" style="fill:#945959;" width="14.37" height="29.097"/>
			<path style="fill:#37474F;" d="M193.935,225.043c0,0,1.007,49.493,0.664,69.105c-0.258,14.764-2.563,59.01-2.563,59.01
				s-9.318,6.087-19.133,1.004c0,0-5.664-44.687-4.281-58.145c0.168-1.637,0.156-3.28-0.033-4.915l-8.658-74.931L193.935,225.043z"
				/>
			<path style="fill:#37474F;" d="M185.173,366.521c0,0-7.969-0.915-9.574-3.503v-1.685c0,0-1.381,0.737-1.118,3.532
				c0.244,2.596-0.797,7.015-0.946,12.406c-0.025,0.891,0.382,1.74,1.088,2.285c1.539,1.189,4.805,3.016,10.551,3.266
				c2.016,0.088,10.071,5.253,16.78,5.253c6.708,0,11.09-3.325,11.09-7.97s-13.672-8.852-13.672-8.852l-6.573-6.388
				c0,0,1.275-6.932-2.912-5.268C185.698,361.262,185.173,363.015,185.173,366.521z"/>
			<path style="fill:#FAFAFA;" d="M186.662,370.544c-0.045,0-0.091-0.007-0.136-0.022c-0.226-0.075-0.347-0.318-0.272-0.544
				c1.555-4.662,6.272-5.503,6.473-5.537c0.243-0.038,0.455,0.119,0.495,0.352c0.039,0.234-0.118,0.456-0.353,0.496
				c-0.044,0.007-4.412,0.799-5.799,4.96C187.01,370.43,186.842,370.544,186.662,370.544z"/>
			<path style="fill:#FAFAFA;" d="M189.283,373.168c-0.045,0-0.091-0.007-0.136-0.022c-0.226-0.075-0.347-0.318-0.273-0.543
				c1.554-4.662,6.271-5.503,6.472-5.537c0.228-0.038,0.455,0.118,0.495,0.352c0.039,0.234-0.118,0.456-0.352,0.496
				c-0.044,0.007-4.412,0.799-5.798,4.96C189.631,373.054,189.463,373.168,189.283,373.168z"/>
			<path style="fill:#FAFAFA;" d="M191.602,375.424c-0.045,0-0.091-0.007-0.136-0.022c-0.226-0.075-0.347-0.318-0.272-0.543
				c1.555-4.662,6.271-5.503,6.472-5.537c0.227-0.04,0.455,0.118,0.495,0.352c0.039,0.234-0.118,0.456-0.353,0.496
				c-0.044,0.007-4.411,0.799-5.798,4.961C191.95,375.31,191.782,375.424,191.602,375.424z"/>
			<path style="fill:#EBEBEB;" d="M213.043,380.105c0,4.593-4.289,7.89-10.871,7.963l-9.396-3.77c0-9.742,6.596-13.045,6.596-13.045
				S213.043,375.46,213.043,380.105z"/>
			<g>
				<path style="fill:#263238;" d="M173.764,377.675c1.609,1.244,5.026,3.155,11.035,3.416c2.108,0.092,10.534,5.495,17.55,5.495
					c4.815,0,8.484-1.638,10.312-4.237c-1.188,3.433-5.144,5.727-10.71,5.727c-6.708,0-14.764-5.166-16.78-5.253
					c-5.746-0.25-9.012-2.077-10.551-3.266c-0.653-0.505-1.034-1.272-1.07-2.09C173.624,377.535,173.685,377.613,173.764,377.675z"
					/>
			</g>
		</g>
		<path style="fill:#263238;" d="M185.611,231.967c0,0-1.315,11.202-9.903,17.126l-7.581,38.006l-4.864-47.52L185.611,231.967z"/>
		<g>
			
				<rect x="135.111" y="350.316" transform="matrix(-0.997 -0.0779 0.0779 -0.997 255.7182 739.7119)" style="fill:#945959;" width="14.37" height="29.097"/>
			<path style="fill:#37474F;" d="M141.79,226.182c0,0-1.734,6.56-2.576,33.638c-0.667,21.459-1.169,33.804-1.349,38.004
				c-0.045,1.045-0.158,2.079-0.335,3.11c-0.688,4-2.552,15.918-3.54,32.721c-1.227,20.859-1.324,30.763-1.324,30.763
				s8.861,6.923,19.554,1.489l10.342-62.226l10.868-57.736c0,0,14.938-5.696,16.257-20.903L141.79,226.182z"/>
			<path style="fill:#37474F;" d="M134.519,372.157l-0.221,2.833c0,0,1.708,2.399,3.723,3.1c0,0,1.539-5.643,4.275-5.933
				c2.736-0.29,8.405-0.538,7.644,2.602c-0.76,3.14-0.789,4.996-0.789,4.996l5.258,9.816c0,0,10.692,9.202,6.223,15.074
				s-19.458,2.735-20.935-6.482c-0.45-2.808-2.115-5.262-4.481-6.839c-2.366-1.578-2.824-3.769-2.551-5.872
				c0.272-2.103,0.912-6.156,0.711-7.985C133.175,375.638,132.683,372.184,134.519,372.157z"/>
			<path style="fill:#EBEBEB;" d="M160.633,404.645c-3.711,4.875-14.664,3.536-19.124-2.332c-0.19-0.909-0.298-1.872-0.298-2.894
				c0-10.484,13.2-9.849,13.2-9.849S165.102,398.773,160.633,404.645z"/>
			<g>
				<path style="fill:#263238;" d="M132.665,385.451c0.02-0.155,0.046-0.34,0.069-0.515c0.198,1.512,0.93,2.963,2.64,4.103
					c2.446,1.631,4.167,4.167,4.632,7.069c1.51,9.422,16.67,12.691,21.474,6.893c-0.176,0.568-0.449,1.12-0.848,1.644
					c-4.47,5.872-19.458,2.735-20.935-6.482c-0.45-2.808-2.115-5.262-4.481-6.839C132.85,389.746,132.393,387.555,132.665,385.451z"
					/>
			</g>
			<path style="fill:#FAFAFA;" d="M141.39,381.96c-0.114,0-0.228-0.045-0.313-0.135c-0.163-0.172-0.155-0.444,0.018-0.607
				c3.572-3.373,8.13-1.885,8.32-1.821c0.225,0.076,0.345,0.319,0.27,0.544c-0.076,0.226-0.323,0.344-0.544,0.27
				c-0.043-0.015-4.266-1.382-7.456,1.631C141.602,381.921,141.495,381.96,141.39,381.96z"/>
			<path style="fill:#FAFAFA;" d="M143.217,385.6c-0.114,0-0.227-0.045-0.313-0.135c-0.163-0.172-0.155-0.444,0.018-0.607
				c3.573-3.374,8.128-1.886,8.319-1.821c0.225,0.076,0.345,0.319,0.27,0.544c-0.075,0.226-0.323,0.344-0.544,0.27
				c-0.043-0.014-4.265-1.38-7.455,1.631C143.429,385.561,143.322,385.6,143.217,385.6z"/>
			<path style="fill:#FAFAFA;" d="M145.043,389.239c-0.114,0-0.228-0.045-0.313-0.135c-0.163-0.172-0.155-0.444,0.018-0.607
				c3.572-3.372,8.13-1.885,8.32-1.821c0.225,0.076,0.345,0.319,0.27,0.544c-0.076,0.225-0.323,0.345-0.544,0.27
				c-0.043-0.014-4.267-1.381-7.456,1.631C145.255,389.201,145.148,389.239,145.043,389.239z"/>
		</g>
		<path style="fill:#BA68C8;" d="M155.984,155.061l-9.167,2.892l-5.028,27.125l2.978,13.147c0.407,1.796,0.482,3.65,0.223,5.473
			l-3.201,22.484c0,0,9.115,5.784,25.767,5.784c16.652,0,26.378-6.924,26.378-6.924l-1.26-51.18
			c-0.482-7.946-3.796-15.457-9.342-21.168l0,0l-11.372,1.315L155.984,155.061z"/>
		<g>
			<g>
				<path style="fill:#263238;" d="M184.885,112.006c0,0,8.763,7.691,1.148,24.833l-8.909-23.173L184.885,112.006z"/>
				<g>
					<g>
						<polygon style="fill:#945959;" points="155.984,155.061 171.96,154.009 171.96,133.317 155.984,133.317 						"/>
					</g>
				</g>
				<path style="fill:#703838;" d="M171.96,152.695c-5.39,0-13.57-4.804-13.57-8.142l-1.796-11.236h15.366V152.695z"/>
				<path style="fill:#945959;" d="M167.711,107.256c5.377,0,16.809,2.997,18.128,17.064c1.319,14.067-0.739,26.03-7.215,26.03
					c-12.716,0-24.923-1.615-25.023-22.421C153.512,109.578,162.467,107.256,167.711,107.256z"/>
				<path style="fill:#263238;" d="M155.984,140.254l2.072-6.357c0.693,0.587,1.757,0.095,1.757-0.814v-11.334
					c0,0,5.285-1.497,4.725-5.944c0,0,2.701,2.417,13.077,2.417c10.375,0,12.895-8.791,11.857-13.682c0,0-1.927,1.983-7.411,1.983
					c-5.484,0-28.31-6.89-28.903,6.902c0,0-1.927-2.824-5.039,0l4.002,2.379c0,0-4.743-0.15-4.002,6.817
					c0.488,4.583,2.164,12.602,3.255,17.553c0.609,2.766,2.26,5.184,4.61,6.764l0,0V140.254z"/>
				<polygon style="fill:#703838;" points="175.576,128.543 175.576,137.576 180.866,135.952 				"/>
				<g>
					<path style="fill:#263238;" d="M167.165,129.978c0,0.933,0.757,1.69,1.69,1.69c0.933,0,1.69-0.757,1.69-1.69
						c0-0.934-0.757-1.69-1.69-1.69C167.922,128.288,167.165,129.044,167.165,129.978z"/>
					<path style="fill:#263238;" d="M179.814,128.799c0,0.933,0.757,1.69,1.69,1.69c0.933,0,1.69-0.757,1.69-1.69
						c0-0.933-0.757-1.69-1.69-1.69C180.571,127.109,179.814,127.866,179.814,128.799z"/>
					<path style="fill:#263238;" d="M183.564,125.28l-3.305-1.963c0,0,1.269-1.318,2.531-0.526
						C184.052,123.582,183.564,125.28,183.564,125.28z"/>
					<path style="fill:#263238;" d="M165.42,126.5l3.305-1.963c0,0-1.269-1.318-2.531-0.526
						C164.931,124.803,165.42,126.5,165.42,126.5z"/>
				</g>
				<path style="fill:#703838;" d="M175.147,141.915c0,0-2.451-1.572-4.807-3.34c0,0-1.372,2.671,0.782,4.053
					C173.276,144.009,175.147,141.915,175.147,141.915z"/>
				<polygon style="fill:#253239;" points="158.2,133.997 152.35,127.654 156.553,125.129 				"/>
				<path style="fill:#945959;" d="M157.233,131.526c1.915,3.316,1.423,7.347-1.248,8.727c-1.717,0.887-6.785-1.026-8.7-4.342
					c-1.915-3.316-0.838-6.164,1.766-7.668C151.655,126.74,155.318,128.21,157.233,131.526z"/>
			</g>
			<path style="fill:#945959;" d="M171.96,154.009l2.183,3.456c1.782,2.821,0.717,6.564-2.281,8.025l0,0
				c-5.442,2.653-11.984,0.035-14.095-5.639l-1.783-4.792L171.96,154.009z"/>
		</g>
		<g>
			<polygon style="fill:#945959;" points="145.471,191.388 141.439,199.89 120.753,208.075 129.095,182.799 			"/>
			<g>
				<path style="fill:#BA68C8;" d="M148.041,157.567c0,0,6.895,7.091,3.915,17.082c-2.98,9.991-6.486,16.74-6.486,16.74
					s-11.629,0.35-16.376-8.589l5.928-14.961c1.887-4.762,5.912-8.354,10.858-9.688L148.041,157.567z"/>
				<path style="opacity:0.3;fill:#FFFFFF;" d="M148.041,157.567c0,0,6.895,7.091,3.915,17.082c-2.98,9.991-6.486,16.74-6.486,16.74
					s-11.629,0.35-16.376-8.589l5.928-14.961c1.887-4.762,5.912-8.354,10.858-9.688L148.041,157.567z"/>
			</g>
			<path style="fill:#945959;" d="M142.598,198.312c-5.226,1.534-20.642,6.096-20.642,6.096s-0.118,0.333-1.204,3.667
				c-1.672,5.133,3.605,17.545,22.4,8.536c18.795-9.009,25.631-13.829,25.631-13.829l-2.038-11.392
				C166.745,191.39,148.57,196.559,142.598,198.312z"/>
			<polygon style="fill:#703838;" points="142.053,198.57 132.324,201.375 143.212,196.126 			"/>
			<g>
				<path style="fill:#37474F;" d="M169.646,207.9l12.203-1.298c0.893-0.095,1.635-0.731,1.866-1.599l6.669-25.091
					c0.197-0.741-0.383-1.459-1.148-1.423l-11.797,0.555c-0.9,0.042-1.671,0.66-1.909,1.529l-7.096,25.9
					C168.223,207.244,168.852,207.984,169.646,207.9z"/>
				<circle style="fill:#263238;" cx="186.663" cy="182.186" r="1.052"/>
			</g>
			<path style="fill:#945959;" d="M166.745,191.39c0,0,3.528-6.137,7.91-7.627l-1.753,6.748c0,0,3.33,0.263,7.099,0.263
				c3.769,0,7.888-2.54,9.115-3.198c1.227-0.658,2.3,3.909-2.443,12.493c-4.743,8.584-17.89,2.712-17.89,2.712L166.745,191.39z"/>
		</g>
		<g>
			<path style="fill:#945959;" d="M197.152,162.897l6.163-7.217c0,0,19.17,16.867,21.388,20.595s4.132,14.471-6.635,15.817
				l-3.134-2.469c-3.356-2.644-6.156-5.924-8.24-9.653L197.152,162.897z"/>
			<path style="fill:#945959;" d="M198.39,149.288c0,0-2.587-5.873-3.058-7.279c-0.68-2.03-2.435-0.846-2.925,0.485
				c-0.491,1.332,0.084,2.77,1.292,4.672C194.907,149.069,198.39,149.288,198.39,149.288z"/>
			<path style="fill:#945959;" d="M197.152,162.897c0,0-6.206-0.368-9.963-4.382l4.658-9.081c0,0-7.128-1.901-9.293-3.585
				c-2.165-1.684-0.915-2.784,0.271-2.682c1.011,0.087,10.526,2.457,12.744,3.516c1.854,0.885,4.395,3.304,7.746,8.996
				L197.152,162.897z"/>
			<path style="fill:#945959;" d="M191.846,149.435c0,0-3.755-2.962-5.225,0.653c-1.47,3.615-3.221,5.164-2.387,6.754
				c0.834,1.589,5.088,8.438,6.387,4.204C191.921,156.811,191.846,149.435,191.846,149.435z"/>
			<path style="fill:#703838;" d="M208.727,183.482c-0.102,0-0.201-0.047-0.266-0.136c-0.742-1.026-1.433-2.108-2.053-3.217
				l-9.458-16.919c-0.714-0.065-3.388-0.386-6.141-1.712c-0.262,0.645-0.629,1.042-1.095,1.181c-0.174,0.053-0.355-0.046-0.408-0.22
				c-0.052-0.174,0.047-0.357,0.221-0.408c0.321-0.097,0.583-0.464,0.778-1.092c0.009-0.037,0.024-0.071,0.045-0.102
				c0.092-0.139,0.273-0.186,0.422-0.11c3.136,1.602,6.367,1.819,6.399,1.822c0.111,0.007,0.211,0.07,0.266,0.167l9.543,17.072
				c0.607,1.086,1.284,2.147,2.012,3.152c0.106,0.147,0.073,0.352-0.073,0.458C208.86,183.461,208.794,183.482,208.727,183.482z"/>
			<path style="fill:#703838;" d="M190.622,161.374c-0.064,0-0.129-0.019-0.186-0.058c-0.086-0.059-2.107-1.452-3.03-2.661
				c-0.11-0.144-0.082-0.35,0.062-0.46c0.145-0.11,0.351-0.083,0.46,0.062c0.858,1.125,2.859,2.504,2.88,2.518
				c0.149,0.102,0.188,0.307,0.085,0.456C190.829,161.324,190.727,161.374,190.622,161.374z"/>
			<path style="fill:#703838;" d="M186.967,149.745c-0.061,0-0.123-0.017-0.179-0.053c-0.151-0.099-0.195-0.302-0.097-0.454
				c0.217-0.335,0.472-0.605,0.762-0.809c-2.512-0.86-4.226-1.64-5.101-2.322c-1.471-1.143-1.391-2.02-1.212-2.44
				c0.248-0.585,0.982-0.93,1.73-0.825c0.634,0.09,7.43,1.942,12.487,3.327c0.086,0.03,1.556,0.572,3.066,2.254
				c0.121,0.135,0.109,0.342-0.025,0.463c-0.135,0.121-0.342,0.11-0.463-0.025c-1.393-1.551-2.763-2.063-2.776-2.068
				c-7.766-2.126-11.939-3.239-12.381-3.302c-0.452-0.063-0.901,0.12-1.034,0.432c-0.176,0.415,0.202,1.038,1.011,1.667
				c0.891,0.693,2.855,1.549,5.681,2.477c0.138,0.045,0.229,0.176,0.226,0.321c-0.005,0.145-0.105,0.27-0.245,0.308
				c-0.48,0.126-0.863,0.42-1.174,0.899C187.18,149.692,187.074,149.745,186.967,149.745z"/>
			<path style="fill:#703838;" d="M192.085,150.187c-0.04,0-0.081-0.007-0.12-0.023l-3.752-1.48
				c-0.169-0.066-0.251-0.257-0.185-0.425c0.066-0.169,0.258-0.253,0.425-0.185l3.752,1.48c0.169,0.066,0.251,0.257,0.185,0.425
				C192.339,150.108,192.216,150.187,192.085,150.187z"/>
		</g>
	</g>
</g>
</svg>
